<svg id="Layer_1" data-name="Layer 1" xmlns="http://www.w3.org/2000/svg" viewBox="0 0 512 512"><title>database</title><path d="M264.18,2.77c.06,0,4.62-8.89,5.61,5.13l3.32,11,6.4,7.57-.76,8.35c1.33,3-18.22-1.87-173.64,29.05,8.42-4.95-96,29.61-18.79,62.22-6.83,5.6,151.13,39.65,310.88,8.57,18.85-4.17,38.46-10.07,51.1-19.1,12.24-10.22,11.29-11.38,3.16-27.48-13-28.73-54.74-27-86.16-32.5C300,49.82,250,46.57,237.94,43.22c-2.23,4.78,107.41.66,195.81,25.6C447.12,75,464.4,105.53,456.56,108c-5.91,10.57-30,20.08-47.58,24.29-37.6,9.46-67.27,11.09-73.16,12.57a543.29,543.29,0,0,0,57.9-7.64c32.17-7.74,90.54-20.4,56.13-56.4-22.28-30.48-85-27.25-121.1-33.11C289,44.24,259.28,41.08,252,39.13c-1.73,4.11,97.73-.59,184,24.07,14.44,7,33.48,35.19,27.13,45.55-5.4,13.65-28.24,23.28-45.26,28.51-36.35,10.76-65.76,13.52-73.54,16.09A506,506,0,0,0,397,146.12c15.48-3.33,34.23-7.42,51.28-16.71,18.3-8.68,27.86-26.41,14.68-46.07C442.81,40.83,385.58,46.15,351,39c-37.67-4-66.79-6.83-77-9.06,0,.17,65.44,6,82.94,6.83l-30.43-3.82c16.39,1.14,32.8,2.2,49.16,4,9.41,1.41,18.8,2.93,28.09,5C404,40.44,327.3,29.89,322,28.29c0,2.49-35.26-5.4,103.87,13.77-2.26,1.06,26.58,1.31,46.49,39.67,14.61,18.83.72,52.28-27.55,60.61-26,11.75-58,17.79-93.65,22.28-71.45,6.4-159.35,15.3-259.26-6.33C69.58,151.12,35.14,142.57,29,104.47,27.14,88,34.34,68.62,47.92,58.31,60.53,48.06,74.37,42.43,88.28,37,144.08,18.19,204.25,12.7,264.18,2.77Z" fill="#e6e4e3"/><path d="M44.2,123.62c-.09.07-.57-9.56,6.51,2.34l7.11,8.57,6.94,5.13,3.09,7.62c.45.25-2.47,1-9.8,10.22C51.5,165.33,43.41,189,77,222.82c.36.15,25.89,24.94,75.17,35.6-2.52.89,93.51,21.88,188.89,3.25,104.88-6.73,144.24-131.86,125.8-116.79.49.86,6.36.3,1.41,19.64-5.45,18.58-24.25,45.16-46,63.84-44.65,33.93-112.48,38.11-118,40.06-.69-.17,57.73-2.63,107.55-29.51,22.35-14,42.82-39.47,53.69-59.38,11.92-21.53,8.74-33.73,7.73-35.61.35-.76,6,7.09-1.53,27C464.61,189.75,447.35,214.49,426,233c-43.78,33.76-108,40.36-116.2,44.17-.19,0,51.64-2.63,101.37-26.68,47.4-26,77.61-85.38,74.87-99.69,4.33,1.25-10.67,41.45-18.28,50a137.66,137.66,0,0,0,10.75-16.46,161.6,161.6,0,0,1-16.24,27.25c-3.9,4.65-7.84,9.21-12.12,13.4,1.23,1.38,31.84-37.45,33.34-41.69-3.5-2.79,15.92-15.79-39.65,54.92,1.26.47-40.71,39.91-129.31,50.44-43.79,5.24-97.33,8.16-159.07,0-30.25-5.08-64.92-14-94.1-39.47C46.93,236.69,33.16,221,25.1,198.4,15.26,176.47,23.13,140.67,44.2,123.62Z" fill="#e6e4e3"/><path d="M43.79,342c-.09.07-.57-9.56,6.51,2.34l7.11,8.55L64.35,358l3.09,7.64c.45.25-2.47,1-9.8,10.22-6.55,7.81-14.63,31.52,18.93,65.3.36.17,25.9,25,75.17,35.61-2.51.89,93.51,21.88,188.9,3.23,104.88-6.72,144.23-131.84,125.78-116.77.5.84,6.36.3,1.41,19.64-5.45,18.58-24.24,45.14-46,63.84-44.65,33.91-112.48,38.11-118,40-.69-.17,57.73-2.63,107.57-29.49,22.35-14,42.82-39.47,53.69-59.38,11.9-21.53,8.74-33.75,7.73-35.61.34-.76,6,7.07-1.53,27-7.15,18.85-24.41,43.61-45.73,62.11-43.76,33.75-108,40.34-116.19,44.17-.19-.07,51.62-2.64,101.37-26.68,47.38-26,77.59-85.38,74.87-99.71,4.31,1.26-10.69,41.47-18.28,50a136,136,0,0,0,10.74-16.44,160.48,160.48,0,0,1-16.24,27.25,180.12,180.12,0,0,1-12.12,13.4c1.23,1.38,31.86-37.45,33.34-41.69-3.5-2.81,15.92-15.79-39.65,54.92,1.28.45-40.7,39.91-129.31,50.43-43.8,5.24-97.32,8.16-159.06,0-30.25-5.1-64.92-14-94.11-39.49C46.52,455,32.75,439.31,24.68,416.74,14.84,394.8,22.71,359,43.79,342Z" fill="#e6e4e3"/><path d="M58.67,237.82c-.08,0,.72-9.54,6,3.35l5.87,9.58,6.31,6,2,8c.44.37-2.68.64-12.45,9.12-9.11,7.29-24.45,29.32,7.14,67.56.42.1,24.41,28.29,75.91,39.79-2.88.86,97.76,23.68,196.73,3.13,105.2-8.26,142.48-149.73,125.85-133.82.27,0,6,1.5.67,23.4-6.3,20.45-23.43,49.18-45.09,71.38-41.72,40.08-114.45,44.47-119.57,46.37-1.36,0,61.8-2.42,109.3-34,48.19-37.65,69.93-106.36,61.16-107.32.29-.93,5.37,9-2.46,30.28-6.87,20.4-23.75,47-44.32,68.91-41,40.7-110.09,46.4-117.9,50.86-.54.25,54.72-3,103.88-30.75,46.17-33.9,74.82-95.53,73.16-110.38,3.8,1.13-11.07,43.24-18.11,52.73a173.28,173.28,0,0,0,10.35-17.74,190.19,190.19,0,0,1-15.54,29.29c-3.55,5.25-7.74,10-11.61,14.95,1,1,30.73-41.27,32.21-45.54-3.2-2.27,14.79-18.13-37.9,59.7,1.67,0-38.12,48.19-131.52,59.16-45.63,5.52-101.5,8.79-165.82-.39C121.58,406,85,396,56.31,366.58c-14-14.39-27.4-32.4-31.9-58.22C18.84,281.65,36.76,249.69,58.67,237.82Z" fill="#e6e4e3"/></svg>